<svg xmlns="http://www.w3.org/2000/svg" width="148.16" height="80.64" viewBox="0 0 148.16 80.64"><path d="M705.763,2628.031c.17.82,1.255,1.486.525,2.608l-.55-.446a3.012,3.012,0,0,1-2.113,1.609c-1.07,1.142-2.046,2.281-3.127,3.31-1.134,1.079-2.368,2.052-3.59,3.1l-.683-.606c.1,1.957-1.028,3.14-2.187,4.168.275.535.506.987.739,1.44h.649l.309-1.61c1.307.2,2.01-.654,2.693-1.672l-.624-.887a5.579,5.579,0,0,0,3.446-2.208,27.528,27.528,0,0,1,7.032-5.993,8.428,8.428,0,0,1,2.072-.569l-1.949-1.129-.959,1.292-.933-2.62,2.883-1.532.615.485c1.978-1.368,4.429-1.319,6.786-1.883l1.169.6v1.224l1.245.209-.589-1.544.527-.527c1.349-.047,1.541,1.267,2.454,2.082l.28-1.652c1.575-.321,2.779.909,4.2,1.133l.208,1.941.745-1.44h2.391l-.632,1.108,1.657-.405c-.241-.058-.1-.054.009.006,1.854,1.012,3.764,1.936,5.54,3.071a26.331,26.331,0,0,1,6.371,5.632c1.507,1.877,2.643,4.046,4.266,5.859a6.3,6.3,0,0,1,.717,1.374l-.483.48a2.731,2.731,0,0,1,1.631,2.046c.707,3.056.688,3.06.137,4.258l1.136,2.906-1.428.713.587.929c-.406,2.185-.78,4.2-1.161,6.253l-1.4.154c.111,1.832-1.138,2.973-2.536,4.3l1.522.849-.939,1.5-.388-1.139c-.453.187-1.109.257-1.406.62a42.553,42.553,0,0,0-2.707,3.78,1.923,1.923,0,0,0-.163.951c-.967.86-2.038,1.407-2.469,2.274-1.178,2.363-3.444,3.351-5.395,4.75a20.008,20.008,0,0,1-1.768,1.019l-.322-.894c-.126.059-.363.124-.36.174a1.549,1.549,0,0,1-1.11,1.888h-1.587l-1.928,2.343-1.7-.494c-.886,1.89-2.919,2.318-4.752,3.12l-.668-.534c-.542.516-1.108,1.053-1.686,1.6h-2.155c-.472.972-1.017,1.781-2.286,1.2l-2.676,1.816,5.338,3.024.637-.455,2.014.639v.6c.138.044.358.15.382.117.469-.66,1.168-.431,1.748-.378.753.07,1.481.376,2.232.507a8.8,8.8,0,0,1,2.079.249c.828.379,1.341-.365,2.106-.337.851.032,1.616.625,2.593.218a7.1,7.1,0,0,1,2.677-.114,28,28,0,0,0,8.114-1.478c1.631-.466,3.332-.718,4.925-1.282a68.945,68.945,0,0,0,7.467-3.023c1.128-.555,2.6-.461,3.406-1.675.249-.373,1.161.015,1.042-.915-.02-.154.687-.355,1-.609.419-.344.756-.788,1.17-1.14.779-.664,1.588-1.292,2.579-2.092v2.14c-1.055.594-1.055.594-2.045,2.877h1.352c.588-1.58,2.23-2.379,3.218-3.772l.734.78-.944,1.929c.308-.017.74.087.9-.076a18.47,18.47,0,0,0,1.418-1.909l.5,1.744,1.828,1.238-2.317.915.5,1.645-2.027,1.466,1.384.773-1.363,1.3-1.447-.811.419,1.663-.837.571-.158-.76-2.663,1.787.327.361-1.327,1.838-.9-.744-.9,1.564h-1.488c-1.432.945-2.664,1.9-4.023,2.612-1.213.637-2.832.151-4.041,1.338l-1.116-1.184-1.641.116,1.618.756c-1.764.873-3.15,2.67-5.415,1.436l-.949.948-.689-.583a2.737,2.737,0,0,1-3.532-.016l-1.432,1.268-1.564-.487c-.127.073-.415.375-.684.359-.3-.018-.56-.421-.872-.485a6.756,6.756,0,0,0-1.359-.023,4.462,4.462,0,0,1-1.085-.02,4.831,4.831,0,0,1-1.03-.591c-1.483,1.693-2.873-.467-4.892.143l1.48-2.068c-.491-.457-1.573.154-2.511,1.456l-.186-.87c-.849-.814-1.532.27-2.35.33l-1.15-1.086-.635.559-.268-.969c-1.8-.525-3.736-1.077-5.639-1.725a2.063,2.063,0,0,1-1.429-1.4c-.752-.014-1.611.237-2.089-.083-2.652-1.772-5.2-3.692-7.808-5.538-.407-.289-.907-.443-1.346-.692-.524-.3-1.027-.63-1.6-.986l-.322,1c-1.39-.164-2.889.41-4.272-.562l-1.845.959c-1.607-1.129-3.755.317-5.342-.784l-1.783.511-.372-1.088c-1.035.6-1.945.32-3.05-.046-1.043-.345-2.233-.233-3.074-1.156-.13.11-.258.221-.527.452l-.744-.55-.8.4c-1.192-.289-2.421-.5-3.594-.887-2.4-.786-4.995-.934-7.193-2.4a8.192,8.192,0,0,0-2.638-.849c-5.279-1.255-9.838-3.993-14.325-6.892a34.4,34.4,0,0,1-6.88-5.78,8.84,8.84,0,0,0-2.167-2.013c-.918-.483-1.059-1.461-1.814-2.045-2.042-1.578-3.245-3.906-4.809-5.905a54.192,54.192,0,0,1-4.063-6.214,40.137,40.137,0,0,1-3.566-6.966c-.785-2.3-2.036-4.482-2.286-6.973-.031-.3-.494-.575-.5-.867-.035-1.663-.9-3.128-1.089-4.731a32.963,32.963,0,0,1-.027-3.744l1.607-1.39,2.693.785.195.873h1.073a12.926,12.926,0,0,1,1.41,1.874,5.047,5.047,0,0,1,.626,2.179c0,2.675,1.524,4.84,2.354,7.222.6,1.73,1.454,3.388,2.079,5.135a12.833,12.833,0,0,0,1.6,2.6c1.28,1.919,2.348,3.972,3.762,5.809.78,1.014,1.327,2.216,2.154,3.184,1.8,2.1,3.624,4.192,5.588,6.137,4.141,4.1,9.147,6.943,14.353,9.432a16.794,16.794,0,0,0,3.678.985c1.658.361,3.091,1.389,4.812,1.556,2.485.242,4.789,1.406,7.338,1.4a17.66,17.66,0,0,1,2.774.51c.931.154,1.911-.283,2.819.5.31.266,1.182-.027,1.763-.189a6.3,6.3,0,0,1,4.555.244l.959-.659c.26.211.53.411.777.638.2.181.366.394.479.517l1.443-1.548c-.472-.987-1.089-2.174-1.609-3.4s-.891-2.541-1.439-3.766a15.094,15.094,0,0,1-1.209-3.962c.069.069-.253-.252-.637-.637,0-1.018.044-2.1-.015-3.182-.042-.763.31-1.592-.466-2.279a1.4,1.4,0,0,1-.035-1.3c.863-1.512.367-3.134.523-4.7a4.912,4.912,0,0,1,1.64-3.785,6.169,6.169,0,0,1,.641-3.45c.392-.731.325-1.8.85-2.343.68-.7.423-1.522.732-2.177.655-1.385.853-3.179,2.92-3.627-.356-.467-.559-.735-.8-1.05l1.62-1.165.886-2.287c.942-1.109,1.981-2.9,3.517-3.981,1.51-1.066,2.5-2.546,3.877-3.654C702.59,2630.065,704.213,2629.092,705.763,2628.031Zm23.29,8.086-1.494-2.143-1,1.327-.68-1.4-.529,1.129h-.689l-.277-1.579H722.06c-.843-1.6-1.886-2.17-2.416-1.4.17.21.42.4.479.628.054.214-.1.48-.225.988a12.6,12.6,0,0,0-1.742-1.325c-.332-.172-.827-.031-1.424-.031l.748,1.016c-1.137,1.382-1.138,1.385-2.419.681-.495.246-1.138.358-1.344.72-.257.449-.182,1.072-.927.826l-.853-1.385-2.356,3.1-.721-.634-.979,1.586-1.9.886.513.645-3.263.968.47.516-1.505,3.813c2.131-.731,2.41-2.839,3.85-3.857s2.723-2.249,4.219-3.508v1.224a16.762,16.762,0,0,1-2.561,2.24c-.933.521-1.183,1.645-2.093,2.056-1.023.462-1.187,1.532-1.828,2.251-1.063,1.193-1.42,3.047-3.228,3.456a6.44,6.44,0,0,1-1.729,4.026v2.1l-1.005.369c.505.692.888,1.336.158,2.092a4.727,4.727,0,0,0-1.261,3.823,11.946,11.946,0,0,1-.551,3.049c-.124.763.168,1.609-.55,2.238-.057.05.072.313.115.476l.945.334a3.935,3.935,0,0,0-.509.907,2.856,2.856,0,0,0-.007,1.083c.053.356.271.694.288,1.046.015.305-.307.684-.21.919a21.616,21.616,0,0,1,1.065,4.2,10.271,10.271,0,0,0,2.351,4.708c2.039-.293,3.5-1.354,5.31-1.71,1.918-.379,3.631-1.705,5.5-2.452,3.541-1.414,6.384-4.154,10.092-5.243.281-.082.459-.515.684-.785a3.007,3.007,0,0,1,.571-.674,45.045,45.045,0,0,0,8.49-7.142,28.346,28.346,0,0,0,3.5-4.817,19.281,19.281,0,0,1,1.534-2.891c1.258-1.4,1.359-3.15,1.65-4.769a20.075,20.075,0,0,0,.033-5.432,10.5,10.5,0,0,0-2.073-5.115c-.327-.449-1.063-.583-1.458-1a7.962,7.962,0,0,1-.92-1.617l-.688.562-1.126-1.065Z" transform="translate(-619.195 -2624.848)" fill="#fff9f8"/></svg>