<svg xmlns="http://www.w3.org/2000/svg" width="397.903" height="148.312" viewBox="0 0 397.903 148.312"><path d="M232.227,82.668a3,3,0,0,0,1.6.074c.234-.852.955-.834,1.721-.7.622.11,1.231.285,1.856.372,1.083.15,1.548-.617,2.256-1.1.837-.568,1.626,1.12,2.681.211,1.128-.973,2.392-.348,3.238.2a3.254,3.254,0,0,0,3.013.369,2.97,2.97,0,0,1,2.844.3c1.349,1.157,2.909,1.139,4.585.711a3.315,3.315,0,0,1,1.336-.146c4.22.765,8.552.221,12.784.854,1.174.175,2.425.089,2.88,1.345l1.673.011c1.521-.435,3.046-.91,4.406.316a12.421,12.421,0,0,0,3.3.186c.66-.572,1.219-.522,1.667.2a6.4,6.4,0,0,0,2.754.252,4.236,4.236,0,0,1,3.806.025l7.763.475c.39-.445.75-.4,1.081.053a21.85,21.85,0,0,0,4.987.422.994.994,0,0,1,1.637.074,17.533,17.533,0,0,0,4.994.366,2.186,2.186,0,0,1,2.731.117,27.22,27.22,0,0,0,6.1.35,3.825,3.825,0,0,1,3.832.133c1.084.113,2.159.525,3.263.085.4-.68.791-.66,1.174.013a81.49,81.49,0,0,0,12.072.2c.059-.288.143-.6.543-.623s.533.266.615.555a7.862,7.862,0,0,0,2.791.031.592.592,0,0,1,1,.051,4.806,4.806,0,0,0,2.2-.1c.382-1.628.388-1.648,2.076-1.3,2.019.415,3.957.924,6-.169a1.628,1.628,0,0,1,2.477,1.033l1.044-.122c.779-1.023,1.749-.731,2.74-.294a2.769,2.769,0,0,0,1.673-.227c1.543-.764,3.1-1.462,4.94-.73a1.738,1.738,0,0,0,1.111-.239c1.592-1.734,1.592-1.734,3.854-.722a6.646,6.646,0,0,0,2.229-.493,3.414,3.414,0,0,1,3.019-1.7,8.92,8.92,0,0,0,2.464-.776c1.675-.475,2.54-2.107,4.446-2.124l.56-.463a2.75,2.75,0,0,1,.769-2.143c.615-.629-.009-1.373-.841-1.013-1.862.806-2.55-.546-3.288-1.278-2.041-2.023-1.164-4.1,1.743-4.561.169-.011.338-.02.507-.027-.1-.818.475-1.513.574-2.291.085-.658.506-.868,1.23-1.027,2.072-.451,2.094-.592,2.094-2.362a4.022,4.022,0,0,0-1.369-3.008,1.824,1.824,0,0,1-.415-2.555c.338-.642.553-1.334.909-1.968a2.222,2.222,0,0,0-.616-3.031c-1.5-.859-1.347-2.1-1.816-3.208h0c-.618-.028-1.3.084-1.584-.609-.41-.99.687-2.175-.036-2.88-.674-.659-2.273-.282-3.115-1.143-.113-.115-.311-.169-.427-.283-.339-.336-.453-.809.013-1.008,2.228-.947.983-1.519-.261-2.1a1.225,1.225,0,0,1-.709-.939l-2.685-.077c-1.641.556-1.641.556-2.264-.9l-1.038-.053a34.46,34.46,0,0,1-9.425-1.9c-2.424-.535-4.907-.792-7.345-1.35-4.56-1.045-9.262-1.634-13.912-2.379a36.625,36.625,0,0,0-4.328-.5,16.824,16.824,0,0,1-4.054-.467c-1.479-.43-2.6.673-3.978.6-.553-.484-.911-1.058-1.916-1.154-10.028-.959-19.892-2.81-29.856-4.132-9.789-1.3-19.554-2.723-29.407-3.686-3.253-.317-6.557-.383-9.763-1a35.044,35.044,0,0,0-5.706-.691c-.636.774-.941.42-1.155-.25a14.47,14.47,0,0,0-3.248-.246c-1.164.792-1.508.754-2.263-.246l-1.6-.222a7.007,7.007,0,0,1-6.668-.759c-3.317-.228-6.539-1.051-9.877-1.147-.633.795-.948.458-1.16-.242L224.5,21.6c-.6.747-.926.458-1.16-.218l-3.252-.256c-.7.785-.973.385-1.149-.3l-2.7-.2c-.768.858-1.329.731-1.708-.266l-1.607-.186c-.908.758-1.714.963-2.251-.306l-2.15-.206c-.622.8-.948.49-1.166-.23l-2.7-.235c-1.3.84-1.486.815-2.257-.3l-1.61-.149c-2.278.956-3.954.727-5.566-.759l-2.167-.157c-.766.779-1.345.733-1.7-.288l-2.681-.283c-.758,1-1.921.552-2.934.583a.9.9,0,0,1-.98-.9,9.968,9.968,0,0,0-2.722-.573c-1.861.885-2.378.821-3.338-.41l-2.143-.242a1.153,1.153,0,0,1-1.267.711,50.3,50.3,0,0,1-6.7-.9,1.03,1.03,0,0,1-.913-1.018,4.744,4.744,0,0,0-2.18-.224c0,1.078-.75,1.49-1.77,1.088a18.5,18.5,0,0,0-7.227-1.329c-.862.016-.953-.586-1.016-1.152a5.151,5.151,0,0,0-2.083-.445c-1.295.985-1.55.952-2.274-.293l-1.052-.183c-.557.882-.917.634-1.181-.154a5.313,5.313,0,0,1-2.216-.653.39.39,0,0,1,.091.274c-.149.352-.328.683-.85.681-.671,0-.814-.408-.873-.87L144,11.128c-.678.841-.958.4-1.167-.268l-1.594-.188c-1.321.825-1.5.8-2.255-.335l-2.144-.2a3.277,3.277,0,0,1-3.93-.71l-1.088-.125c-.06.359-.044.855-.625.8-.8-.071-1.5-.379-1.586-1.209L128.545,8.8a1.463,1.463,0,0,1-1.661.463,48.457,48.457,0,0,0-6.348-.961c-.912-.075-2.3-.043-2.5-1.339l-1.089-.082a1.026,1.026,0,0,1-1.121.52c-2.787-.83-5.748-.743-8.592-1.257-3.828-.692-7.676-1.3-11.491-2.039-3.463-.666-7.044-1-10.333-2.2A43.948,43.948,0,0,0,75.872.019,1.556,1.556,0,0,0,74.6.33c-1.12,1.121-2.6.93-4.051.951-1.9.028-1.9.05-2.136,1.9.745,1.377,3.253,1.19,3.648,3-.318.086-.6.254-.8.2-1.625-.45-3.175-.687-4.625.44a2.38,2.38,0,0,1-1.34.118,6.874,6.874,0,0,0-3.362.9c-.493.219-1.275.551-1.054.94.607,1.066-.609,1.741-.51,2.636.019.168.387.306.592.46.4.3.962.5.875,1.259-1.97-.28-3.926-.549-5.878-.842-.865-.13-1.534-.174-1.978.743-.7,1.448-2.55,2.074-3.522,3.436-.759,1.062-2.5.795-4.473.713a30.018,30.018,0,0,0,5.087,3.137c.328.147.666.417,1,.275,1.49-.634,2.841.41,4.3.216a1.061,1.061,0,0,1,1.25.714c.119.612-.58.737-1.052.908a1.54,1.54,0,0,1-1.942-.377,1.605,1.605,0,0,0-2.112-.512c-.436.161-.895-.128-1.324-.14-1.854-.05-3.464-.907-5.237-1.114-1.2-.14-2.327-.149-3.239-.992a3.771,3.771,0,0,0-2.511-.83c-1.7.044-2.912-1.391-4.656-.975C32.931,15.717,29.258,16,26.667,14.1a18.31,18.31,0,0,0-2.393-1.122c-1.326-.675-1,.973-1.987,1.112a7.772,7.772,0,0,1-4.546-.615c-.336-.157-.658-.317-.966,0a.667.667,0,0,0-.035.882,3.239,3.239,0,0,0,1.866,1.334,7.044,7.044,0,0,1,2.459,1.835c.272.231.465.523.26.844s-.556.249-.94.2a17.008,17.008,0,0,0-4.009-.439c-.949.1-2.4-.55-1.7,1.224.119.3-.3.538-.592.732a1.768,1.768,0,0,0-.457,2.8,8.1,8.1,0,0,0,2.84,1.726,2.9,2.9,0,0,1-2.717.229c-2.23-1.3-5.075-1.252-7.27-2.605-.44-.271-1.3-.731-1.763-.257-1.013,1.036-2.029.18-3.034.2-.059.933-.854.939-1.636.962-.019.142-.034.285-.048.427a5.751,5.751,0,0,0,.612,1.985c1.012,1.316.714,2.514-.066,3.753l.638.89a25.852,25.852,0,0,1,9.348,5.353,5.727,5.727,0,0,1,6.255.558,16.77,16.77,0,0,0,2.219.9c3.435,1.651,7.269,2.417,10.914,3.584a157.018,157.018,0,0,0,19.331,5.059c3.2.591,6.36,1.372,9.476,2.136,3.764.923,7.564,1.739,11.325,2.672.843.209,1.868.2,2.371,1.029l.966.116c.438-.49.741-.276,1.006.143l5.583,1.271c.6-.374.988-.071,1.342.323l1.463.216c.6-.495.919-.1,1.237.291a108.369,108.369,0,0,1,12.4,1.917c8.064,1.458,16.02,3.292,23.984,5.1,4.854,1.1,9.683,2.31,14.63,3.089,2.943.08,15.617,2.618,18.377,3.663a2.468,2.468,0,0,0,.814.092c3.227.045,6.222,1.1,9.338,1.63,3.439.585,3.405.723,7.678-.324.225-.056.517.1.78.147.516.1.653.838,1.551.541-.222-2.023,1.1-3.078,3.349-3.426.41-.063.937-.382,1.171.159.531,1.223,1.377.633,2.216.357,2.186-.72,2.313-.65,2.8,1.4,1.454,1.056,3.209-.936,4.64.34,1.692-.6,2.844.269,4.02,1.087,1.368.953,3.031.278,4.532.575.924.182.231-1.227,1.217-1.233.134.106.359.2.368.3.08.907.468,1.822-.99,2.38-1.3.5.5,1.733-.56,2.543-.609.467-1.581.424-1.959,1.1a1.231,1.231,0,0,0,1.259.8c2.932-1.336,4.3,2.478,7.062,1.545.03-.01.144.094.175.16.86,1.831,3.22,1.461,4.707,2.374a2.255,2.255,0,0,0,2.093-.078c1.545-.6,2.409-.181,2.7,1.226l1.11.067c1.109-.717,2.288-.523,3.591-.461,2.221.1,4.617,1.146,6.7-.634.632-.54,1.369.046,1.742.643.5.807,1.159.91,2.236.881C229.257,81.763,230.992,81.44,232.227,82.668Zm-34.773-8.307c-.092.231-.18.27-.225.108-.006-.021.143-.073.221-.111.4-.678,1.069-1.211,1.262-2.021.1-.434.356-1.286,1.151-.937.592.26.424,1.02-.094,1.41C199.038,73.363,198.995,74.707,197.455,74.361Zm93.791-38.885c2.044.247,4.092.483,6.133.746.748.1.962-.241,1-.78-2.071-.291-4.145-.564-6.212-.877-5.806-.88-11.619-1.72-17.5-2.137.008.787.516,1.035,1.378,1.136,1.467.173,2.912.479,4.4.733-.3.8-.916.62-1.412.666-1.935.177-3.746-.578-5.685-.538-1.123.023-2.181-.714-3.421-.149-1.3.59-2.043-.791-3.362-.812a65.038,65.038,0,0,1-7.253-.872c-1.848-.24-2.014-.4-2.314-2.3q-4.187-.393-8.37-.78c-.231,1.314,1.757.868,2.077,1.757a2,2,0,0,1-1.918.281c-1.852-.587-3.958.151-5.713-.849-4.3.132-8.449-1.366-12.784-.857-.245.029-.65.005-.745-.123-.947-1.271-2.438-.8-3.753-.94-2.08-.225-4.166-.408-6.247-.606-.992-.1-2.442,0-2.961-1.313a.725.725,0,0,0-1.287-.012c-.539,1.226-1.279.824-2.083.33-.358-.219-.6-.719-1.1-.584-1.93.516-1.216-.845-1.489-1.5l-2.675-.084a1.657,1.657,0,0,1-2.081,1.265c-1.045-.174-.546-1.115-.717-1.722-1.715-.092-3.424-.207-5.137-.376-2.7-.268-5.225-1.5-8.033-1.036-.275.558.275,1.953-.829,1.539-1.269-.475-2.626-.51-3.87-1.02-1.489-.611-3.212-1.645-4.678.2-.144.181-.681.173-1.037.178a12.321,12.321,0,0,1-3.253-.315c-1.352-.345-2.723-.393-3.27,1.211a1.187,1.187,0,0,1-1.583.713c.78-1.328,1.161-2.624-.36-3.844-.646.534-1.089,1.5-1.971,1.19-2.121-.732-4.38-.021-6.509-.671-1.381-.422-4.051-1.662-4.675-2.5l-1.636-.113c-.37.575-.861.357-1.409.212a57.062,57.062,0,0,0-7.877-1.952c-4.524-.525-9-1.283-13.445-2.089-1.852-.336-4.081-.538-5.785-2.41,3.046.463,5.783.258,8.233,1.1,4.233,1.461,8.7.685,13.023,1.255a45.532,45.532,0,0,0,5.991.891c.239,0,.48.435.719.669l1.084.01c1.6-.841,3.318-.45,5-.3.382.033.456.446.564.744l2.159.052c1.839-.7,2.15-.62,3.359.893a44.236,44.236,0,0,1,7.851.255c2.128.224,4.359.893,6.559,1.3,2.009.373,3.979,1.2,6.126.485a1.318,1.318,0,0,1,1.28.257c.716.685,1.658.513,2.551.613,3.877.431,7.738,1.152,11.625,1.28,3.495.116,6.78,1.356,10.3,1.1.755-.054,1.5.02,1.691.848l1.615.074c1.412-.872,2.95-.415,4.444-.28.392.036.446.449.522.754a23.826,23.826,0,0,0,4.409.478c.66-.691.938-.242,1.187.295l3.219.216c2.078-1.024,3.862-.264,5.613.686a12.352,12.352,0,0,0,3.225.183c2.136-.692,2.815-.607,3.872.486l2.649.286c.516-.842.923-.715,1.253.1l1.028.092c.05-.294.117-.672.494-.682.636-.017.511.457.525.81a2.653,2.653,0,0,0,1.707.287c.074-.276.159-.615.516-.64.579-.041.544.407.622.738a49.4,49.4,0,0,0,5.519.492c.681-.745.956-.293,1.184.3,1.92.12,3.865.114,5.757.382,9.04,1.28,18.121,2.281,27.212,3.266,10.078,1.092,20.137,2.355,30.081,4.183A79.156,79.156,0,0,1,334.9,39.592a91.924,91.924,0,0,1-14.674-1.122c-6.706-.864-13.394-1.833-20.09-2.757-.367,1.309.895,1.038,1.6,1.14,3.232.467,6.515.623,9.719,1.3,1.669.354,3.433.36,5.138.6,3.861.552,7.7,1.191,12.024,2.23a11.7,11.7,0,0,1-3.846-.119,20.326,20.326,0,0,0-4.026-.644c-5.509-.152-10.729-1.838-16.2-2.167-3.277-.2-6.429-1.114-9.731-1.25a7.047,7.047,0,0,1-3.613-.88c-4.623-.021-7.891-.429-8.979-1.445Zm-32.116,5.45c.045.533.249,1.2-.429,1.462-1.431.556-2.851-.029-4.172-.385-1.054-.285.043-1.22-.272-1.821a.552.552,0,0,0-.378-.053,8.943,8.943,0,0,1-2.188.032c-5.068-1.215-10.383-.691-15.5-1.761-3.421-.716-7.015-.9-10.479-1.558a28.412,28.412,0,0,0-5.156-.486c-.489,0-.912-.212-.9-.7s.458-.639.947-.656a3.455,3.455,0,0,1,1.09.055,31.323,31.323,0,0,0,7.43,1.079c3.7.234,7.338,1.034,11.073,1.305,4.343.316,8.639,1.078,13,1.322.773.043,1.493.063,1.62.914a60.475,60.475,0,0,0,6.27.5c4.351-.051,8.5,1.067,12.8,1.278a44.556,44.556,0,0,1,6.234.693c3.921.759,7.9,1.348,11.891,1.771q9.833,1.039,19.607,2.406c1.44.2,3.108-.141,4.343.362,4.183,1.7,8.753,1.425,12.964,2.336a70.265,70.265,0,0,1-13.481-.407c-5.24-.769-10.443-1.721-15.683-2.493-6.142-.9-12.306-1.7-18.46-2.544.36,1.34,1.635,1.248,2.812,1.359,3.333.314,6.591.966,10.064,1.567a3.25,3.25,0,0,1-2.285.261c-5.136-.589-10.27-1.184-15.4-1.82q-7.287-.9-14.559-1.9c-1.692-.232-1.68-.292-.973-2.013Zm103.2,35.859c.439-.614,1.03-.495,1.684-.3a4.326,4.326,0,0,0,3.438-.144c.538-.293,1.076-.759,1.712-.3.582.425.363,1.021.115,1.537-.478,1-.165,1.514,1.132,1.532.446.006.938,0,1.067.618a2.31,2.31,0,0,1-1.617.648c-3.018-.164-5.907.694-8.9.859a40.984,40.984,0,0,0-4.351.35,60.534,60.534,0,0,1-13.978.2,65.006,65.006,0,0,0-11.195-.051c-.765.078-.98-.207-1.087-.731a9.637,9.637,0,0,1-3.195.145,28.96,28.96,0,0,0-6.509-.607c-3.4.057-6.749-.434-10.117-.626-5.08-.289-10.156-.853-15.217-1.39-2.1-.222-4.2-.229-6.274-.495-5.965-.767-11.827-2.517-17.984-1.275-1.887-1.219-3.378-.137-4.881.805-.678-2.814-1.931-3.483-4.979-2.631a2.661,2.661,0,0,1-2.065-.17,4,4,0,0,0-2.658-.394c-2.033.473-3.749-.918-5.758-.6-.617.1-.868-.487-.795-1.016.072-.514.478-.653.982-.49a2.242,2.242,0,0,0,2.048-.286c1.134-.717,2.312-1.486,3.447.058.21.286.7.022,1.018.074,1.326.213,2.75-.046,3.966.217a62.709,62.709,0,0,0,9.2,1.186c5.245.344,10.409,1.69,15.746.884a3.206,3.206,0,0,1,1.364.059c1.692.533,3.447.319,5.176.426,2.366.148,4.728.38,7.086.581,3.631.31,7.252.686,10.9.8a34.7,34.7,0,0,1,4.672.083c4.018.694,8.042.323,12.065.339.009-1.073.4-1.791,1.736-1a3.972,3.972,0,0,0,3,.617c1.71-.484,2.3.418,3,1.345l6.051.121a2.571,2.571,0,0,1,.121-.921c.141-.268.438-.11.633.05.531.434,1.2.26,1.814.311.861.071,1.861-.256,2.452.616a58.326,58.326,0,0,0,7.024-.456A37.274,37.274,0,0,1,362.328,76.785ZM46.43,26.366c-1.441-.031-2.871.392-4.241-.434C38.345,23.614,33.8,23.008,29.356,22.2a5.148,5.148,0,0,1-2.846-1.057c-1.945-1.7-1.934-1.472.431-2.8,1.168-.657,2.084.107,3.132-.21.92-.279.719.69.967,1.126s.774.366,1.114.574c1.528.931,3.366,1.139,5.053,1.692,1.869.612,3.75,1.227,5.808.6.407-.123.868-.262,1.082.322C44.586,23.776,46.14,24.6,46.43,26.366Zm209.355,5.36a1.025,1.025,0,0,1-.81.677.544.544,0,0,1-.439-.157c-.182-.442.116-.719.552-.878C255.345,31.276,255.585,31.369,255.785,31.726ZM23.535,19.906c-.155.056-.343.186-.454.148s-.144-.244-.212-.376c.155-.057.344-.187.453-.149S23.467,19.773,23.535,19.906Z" transform="translate(397.903 87.485) rotate(171)" fill="#bed0eb" opacity="0.209"/></svg>