<svg height="42.876" viewBox="0 0 164.098 42.876" width="164.098" xmlns="http://www.w3.org/2000/svg"><g fill="#fff"><g transform="matrix(.93969262 -.34202014 .34202014 .93969262 6.843 7.187)"><path d="m0 3.226h3.226l-1.613-3.226z" transform="translate(8.894 7.28)"/><path d="m19.846 0h-18.679a1.167 1.167 0 0 0 -1.167 1.167v17.59h21.014v-17.59a1.167 1.167 0 0 0 -1.168-1.167zm-4.146 15.053a1.168 1.168 0 0 1 -1.566-.522l-.845-1.69h-5.563l-.845 1.69a1.168 1.168 0 0 1 -2.089-1.044l4.67-9.339a1.179 1.179 0 0 1 2.089 0l4.67 9.339a1.168 1.168 0 0 1 -.521 1.566z"/></g><path d="m95.67 347.167a1.169 1.169 0 0 0 -1.17-1.167h-3.5v2.335h3.5a1.169 1.169 0 0 0 1.17-1.168z" transform="translate(-83.918 -316.044)"/><path d="m18.757 271h-17.59a1.167 1.167 0 0 0 -1.167 1.167v16.422a1.167 1.167 0 0 0 1.167 1.167h17.59zm-8.172 15.177h-4.67a1.167 1.167 0 0 1 -1.167-1.167v-9.34a1.167 1.167 0 0 1 1.167-1.17h4.67a3.487 3.487 0 0 1 2.591 5.837 3.487 3.487 0 0 1 -2.591 5.837z" transform="translate(0 -246.881)"/><path d="m94.5 406h-3.5v2.335h3.5a1.167 1.167 0 1 0 0-2.335z" transform="translate(-83.918 -371.374)"/><path d="m288.589 271h-17.589v18.757h17.589a1.167 1.167 0 0 0 1.167-1.167v-16.423a1.167 1.167 0 0 0 -1.167-1.167zm-8.25 12.842a3.467 3.467 0 0 0 2.474-1.025 1.168 1.168 0 0 1 1.655 1.649 5.837 5.837 0 1 1 0-8.252 1.168 1.168 0 1 1 -1.655 1.649 3.467 3.467 0 0 0 -2.474-1.025 3.5 3.5 0 0 0 0 7z" transform="translate(-249.909 -246.881)"/><path d="m17.028-14.476v13.552a.9.9 0 0 1 -.264.66.869.869 0 0 1 -.638.264h-3.19a.883.883 0 0 1 -.636-.286.883.883 0 0 1 -.286-.638v-5.1h-5.656v5.1a.9.9 0 0 1 -.275.638.871.871 0 0 1 -.649.286h-3.19a.883.883 0 0 1 -.638-.286.883.883 0 0 1 -.286-.638v-13.552a.869.869 0 0 1 .264-.638.9.9 0 0 1 .66-.264h3.19a.9.9 0 0 1 .66.264.869.869 0 0 1 .264.638v4.664h5.654v-4.664a.869.869 0 0 1 .264-.638.9.9 0 0 1 .66-.264h3.19a.892.892 0 0 1 .66.242.892.892 0 0 1 .242.66zm2.53 7.392-.022-7.656q0-.66.748-.66h2.882a1.144 1.144 0 0 1 .682.176.566.566 0 0 1 .242.484l.088 7.172a3.281 3.281 0 0 0 .781 2.255 2.658 2.658 0 0 0 2.057.825q2.552 0 2.552-2.9l.044-7.3a.61.61 0 0 1 .275-.5 1.042 1.042 0 0 1 .649-.209h2.926a1.006 1.006 0 0 1 .649.187.575.575 0 0 1 .209.517v3.256q0 3.036.011 3.784t.011.792a8.843 8.843 0 0 1 -.605 3.377 5.623 5.623 0 0 1 -2.266 2.659 8 8 0 0 1 -4.411 1.067 7.919 7.919 0 0 1 -4.213-1.034 6.4 6.4 0 0 1 -2.486-2.7 8.155 8.155 0 0 1 -.803-3.592zm17.292 6.71v-14.608a.466.466 0 0 1 .22-.4.977.977 0 0 1 .572-.154h3.234l1.562-.044a10.522 10.522 0 0 1 3.949.594 3.613 3.613 0 0 1 1.936 1.606 5.314 5.314 0 0 1 .517 2.442 4.244 4.244 0 0 1 -.814 2.6 4.165 4.165 0 0 1 1.661 1.485 4.3 4.3 0 0 1 .5 2.189 5.283 5.283 0 0 1 -.022.55 5.683 5.683 0 0 1 -.506 2.123 3.616 3.616 0 0 1 -1.765 1.591 8.67 8.67 0 0 1 -3.784.66h-6.336a1.114 1.114 0 0 1 -.66-.187.543.543 0 0 1 -.264-.447zm6.688-2.684a2.257 2.257 0 0 0 1.452-.484 1.526 1.526 0 0 0 .484-1.188 1.434 1.434 0 0 0 -.528-1.177 2.991 2.991 0 0 0 -1.8-.451h-1.698q-.33 0-.33.154v2.948a.164.164 0 0 0 .088.143.455.455 0 0 0 .242.055zm-.55-6.314a1.694 1.694 0 0 0 1.177-.418 1.324 1.324 0 0 0 .407-.99q0-1.386-1.848-1.474h-1.408a.249.249 0 0 0 -.165.066.2.2 0 0 0 -.077.154v2.486a.148.148 0 0 0 .066.132.313.313 0 0 0 .176.044zm24.86 8.426a.94.94 0 0 1 -.165.561.567.567 0 0 1 -.429.253l-3.96.022a.669.669 0 0 1 -.55-.286l-2.944-4.224-3.1 4.2a.636.636 0 0 1 -.3.308.954.954 0 0 1 -.451.11h-3.149a.847.847 0 0 1 -.627-.231.847.847 0 0 1 -.231-.627v-13.42a.834.834 0 0 1 .242-.616.834.834 0 0 1 .616-.242h3.146a.826.826 0 0 1 .6.253.826.826 0 0 1 .253.605v5.83l4.862-6.182a1.437 1.437 0 0 1 1.32-.44l3.388.022h-.022a.5.5 0 0 1 .484.55 1.239 1.239 0 0 1 -.264.7l-3.74 5.082 4.889 7.288a.923.923 0 0 1 .132.484zm2.09-.022v-13.42a1.039 1.039 0 0 1 .262-.712.9.9 0 0 1 .7-.3h3.02a.88.88 0 0 1 .671.3 1.015 1.015 0 0 1 .275.715v13.417a1 1 0 0 1 -.275.737.913.913 0 0 1 -.671.275h-3.014a.931.931 0 0 1 -.7-.275 1.02 1.02 0 0 1 -.268-.737zm8.008 0v-13.464a.931.931 0 0 1 .286-.682.931.931 0 0 1 .682-.286h5.94a7.815 7.815 0 0 1 3.927 1.045 8.045 8.045 0 0 1 2.926 2.816 7.2 7.2 0 0 1 1.093 3.839 7.142 7.142 0 0 1 -1.1 3.839 8.108 8.108 0 0 1 -2.948 2.816 7.876 7.876 0 0 1 -3.942 1.045h-5.9a.931.931 0 0 1 -.682-.286.931.931 0 0 1 -.282-.682zm6.954-3.762a2.393 2.393 0 0 0 1.353-.418 3.053 3.053 0 0 0 1.01-1.152 3.439 3.439 0 0 0 .385-1.617 3.408 3.408 0 0 0 -.374-1.583 3.075 3.075 0 0 0 -1-1.155 2.35 2.35 0 0 0 -1.353-.429h-2.047a.325.325 0 0 0 -.253.11.411.411 0 0 0 -.1.286v5.566a.411.411 0 0 0 .1.286.325.325 0 0 0 .253.11zm8.536 1.98a1.629 1.629 0 0 1 .4-.924l.814-1.056a5.657 5.657 0 0 1 .561-.715.631.631 0 0 1 .451-.209 1.2 1.2 0 0 1 .484.132 8.532 8.532 0 0 1 .792.44l1.122.77a4.131 4.131 0 0 0 2.64.638 1.249 1.249 0 0 0 .825-.3.88.88 0 0 0 .3-.671 1.259 1.259 0 0 0 -.528-.968 2.559 2.559 0 0 0 -1.5-.506h.022a10.669 10.669 0 0 1 -3.014-1 3.829 3.829 0 0 1 -1.54-1.441 4.979 4.979 0 0 1 -.55-2.068 4.572 4.572 0 0 1 .616-2.651 4.954 4.954 0 0 1 2.024-1.892 6.436 6.436 0 0 1 3.036-.693 9.034 9.034 0 0 1 2.552.374 8.851 8.851 0 0 1 1.925.759 4.586 4.586 0 0 1 1.375 1.089.858.858 0 0 1 .308.572.878.878 0 0 1 -.165.473 6.261 6.261 0 0 1 -.561.693l-.638.682a3.923 3.923 0 0 1 -.473.451.543.543 0 0 1 -.319.121.887.887 0 0 1 -.4-.132q-.242-.132-.473-.275l-.407-.253a5.157 5.157 0 0 0 -2.662-.968 1.677 1.677 0 0 0 -1.111.341 1.041 1.041 0 0 0 -.407.825 1.185 1.185 0 0 0 .4.869 1.991 1.991 0 0 0 1.122.5 9.017 9.017 0 0 1 4.7 1.87 4.158 4.158 0 0 1 1.543 3.165 4.475 4.475 0 0 1 -.825 2.541 6.06 6.06 0 0 1 -2.288 1.98 6.987 6.987 0 0 1 -3.267.759 10.316 10.316 0 0 1 -5.92-2.072q-.966-.656-.966-1.25z" transform="translate(57.399 33.154)"/></g></svg>