<svg xmlns="http://www.w3.org/2000/svg" width="134.689" height="35.192" viewBox="0 0 134.689 35.192"><g transform="translate(-5.068 -28.224)"><g transform="translate(5.068 28.224)"><g transform="translate(5.617 5.899) rotate(-20)"><path d="M0,2.648H2.648L1.324,0Z" transform="translate(7.3 5.976)" fill="#fff"/><path d="M16.289,0H.958A.958.958,0,0,0,0,.958V15.4H17.248V.958A.958.958,0,0,0,16.289,0Zm-3.4,12.356a.959.959,0,0,1-1.286-.429l-.693-1.387H6.342l-.693,1.387a.958.958,0,0,1-1.714-.857L7.767,3.4a.968.968,0,0,1,1.714,0l3.833,7.666A.959.959,0,0,1,12.885,12.356Z" transform="translate(0 0)" fill="#fff"/></g><g transform="translate(0 19.797)"><path d="M94.833,346.958a.959.959,0,0,0-.958-.958H91v1.916h2.875A.959.959,0,0,0,94.833,346.958Z" transform="translate(-85.187 -341.209)" fill="#fff"/><path d="M15.4,271H.958a.958.958,0,0,0-.958.958v13.479a.958.958,0,0,0,.958.958H15.4ZM8.688,283.457H4.855A.958.958,0,0,1,3.9,282.5v-7.666a.958.958,0,0,1,.958-.958H8.688a2.862,2.862,0,0,1,2.127,4.791,2.862,2.862,0,0,1-2.127,4.791Z" transform="translate(0 -271)" fill="#fff"/><path d="M93.875,406H91v1.916h2.875a.958.958,0,1,0,0-1.916Z" transform="translate(-85.187 -397.376)" fill="#fff"/><path d="M285.437,271H271v15.4h14.437a.958.958,0,0,0,.958-.958V271.958A.958.958,0,0,0,285.437,271Zm-6.771,10.54a2.845,2.845,0,0,0,2.031-.841.959.959,0,1,1,1.359,1.353,4.791,4.791,0,1,1,0-6.773.959.959,0,1,1-1.359,1.353,2.846,2.846,0,0,0-2.031-.841,2.875,2.875,0,0,0,0,5.749Z" transform="translate(-253.688 -271)" fill="#fff"/></g></g><path d="M14.213-14.724V-3.6A.735.735,0,0,1,14-3.059a.713.713,0,0,1-.524.217H10.854a.725.725,0,0,1-.524-.235A.725.725,0,0,1,10.1-3.6V-7.79H5.455V-3.6a.739.739,0,0,1-.226.524.715.715,0,0,1-.533.235H2.078a.725.725,0,0,1-.524-.235A.725.725,0,0,1,1.32-3.6V-14.724a.713.713,0,0,1,.217-.524.735.735,0,0,1,.542-.217H4.7a.735.735,0,0,1,.542.217.713.713,0,0,1,.217.524V-10.9H10.1v-3.828a.713.713,0,0,1,.217-.524.735.735,0,0,1,.542-.217h2.618a.732.732,0,0,1,.542.2A.732.732,0,0,1,14.213-14.724Zm2.077,6.067-.018-6.284q0-.542.614-.542h2.365a.939.939,0,0,1,.56.144.464.464,0,0,1,.2.4l.072,5.887A2.693,2.693,0,0,0,20.722-7.2a2.182,2.182,0,0,0,1.688.677q2.095,0,2.095-2.384l.036-6a.5.5,0,0,1,.226-.406.855.855,0,0,1,.533-.172h2.4a.826.826,0,0,1,.533.153.472.472,0,0,1,.172.424v2.672q0,2.492.009,3.106t.009.65a7.258,7.258,0,0,1-.5,2.772,4.615,4.615,0,0,1-1.86,2.185,6.563,6.563,0,0,1-3.62.876,6.5,6.5,0,0,1-3.458-.849A5.255,5.255,0,0,1,16.949-5.7,6.693,6.693,0,0,1,16.289-8.657ZM30.482-3.15V-15.14a.382.382,0,0,1,.181-.325.8.8,0,0,1,.469-.126h2.654l1.282-.036a8.636,8.636,0,0,1,3.241.488A2.965,2.965,0,0,1,39.9-13.822a4.362,4.362,0,0,1,.424,2,3.483,3.483,0,0,1-.668,2.131,3.419,3.419,0,0,1,1.363,1.219,3.529,3.529,0,0,1,.406,1.8,4.336,4.336,0,0,1-.018.451,4.664,4.664,0,0,1-.415,1.743,2.968,2.968,0,0,1-1.445,1.309,7.116,7.116,0,0,1-3.106.542h-5.2A.914.914,0,0,1,30.7-2.78.446.446,0,0,1,30.482-3.15Zm5.489-2.2a1.852,1.852,0,0,0,1.192-.4,1.253,1.253,0,0,0,.4-.975,1.177,1.177,0,0,0-.433-.966,2.455,2.455,0,0,0-1.481-.37h-1.39q-.271,0-.271.126v2.42a.135.135,0,0,0,.072.117.373.373,0,0,0,.2.045Zm-.451-5.182a1.39,1.39,0,0,0,.966-.343,1.087,1.087,0,0,0,.334-.813q0-1.138-1.517-1.21H34.148a.2.2,0,0,0-.135.054.162.162,0,0,0-.063.126v2.04a.122.122,0,0,0,.054.108.257.257,0,0,0,.144.036Zm20.4,6.916a.771.771,0,0,1-.135.46.465.465,0,0,1-.352.208l-3.25.018a.549.549,0,0,1-.451-.235l-2.42-3.467L46.77-3.186a.522.522,0,0,1-.244.253.783.783,0,0,1-.37.09H43.574a.7.7,0,0,1-.515-.19.7.7,0,0,1-.19-.515V-14.562a.685.685,0,0,1,.2-.506.685.685,0,0,1,.506-.2h2.582a.678.678,0,0,1,.5.208.678.678,0,0,1,.208.5v4.785l3.991-5.074a1.179,1.179,0,0,1,1.083-.361l2.781.018H54.7a.41.41,0,0,1,.4.451,1.017,1.017,0,0,1-.217.578l-3.07,4.171,4.009,5.977A.758.758,0,0,1,55.925-3.619Zm1.715-.018V-14.652a.853.853,0,0,1,.217-.587.735.735,0,0,1,.578-.244h2.474a.722.722,0,0,1,.551.244.833.833,0,0,1,.226.587V-3.637a.818.818,0,0,1-.226.6.749.749,0,0,1-.551.226H58.435a.764.764,0,0,1-.578-.226A.837.837,0,0,1,57.641-3.637Zm6.573,0V-14.688a.764.764,0,0,1,.235-.56.764.764,0,0,1,.56-.235h4.875a6.415,6.415,0,0,1,3.223.858,6.6,6.6,0,0,1,2.4,2.311A5.906,5.906,0,0,1,76.4-9.163a5.862,5.862,0,0,1-.9,3.151A6.655,6.655,0,0,1,73.079-3.7a6.464,6.464,0,0,1-3.232.858H65.008a.764.764,0,0,1-.56-.235A.764.764,0,0,1,64.213-3.637Zm5.706-3.088a1.964,1.964,0,0,0,1.111-.343,2.506,2.506,0,0,0,.831-.948,2.823,2.823,0,0,0,.316-1.327,2.8,2.8,0,0,0-.307-1.3,2.524,2.524,0,0,0-.822-.948,1.929,1.929,0,0,0-1.111-.352H68.258a.267.267,0,0,0-.208.09.338.338,0,0,0-.081.235V-7.05a.338.338,0,0,0,.081.235.267.267,0,0,0,.208.09ZM76.926-5.1a1.337,1.337,0,0,1,.325-.758l.668-.867a4.643,4.643,0,0,1,.46-.587.518.518,0,0,1,.37-.172.988.988,0,0,1,.4.108,7,7,0,0,1,.65.361l.921.632a3.391,3.391,0,0,0,2.167.524,1.025,1.025,0,0,0,.677-.244.722.722,0,0,0,.244-.551,1.033,1.033,0,0,0-.433-.795,2.1,2.1,0,0,0-1.228-.415h.018a8.757,8.757,0,0,1-2.474-.822,3.143,3.143,0,0,1-1.264-1.183,4.087,4.087,0,0,1-.451-1.7,3.753,3.753,0,0,1,.506-2.176,4.066,4.066,0,0,1,1.661-1.553,5.282,5.282,0,0,1,2.492-.569,7.415,7.415,0,0,1,2.095.307,7.265,7.265,0,0,1,1.58.623,3.764,3.764,0,0,1,1.129.894.7.7,0,0,1,.253.469.721.721,0,0,1-.135.388,5.139,5.139,0,0,1-.46.569l-.524.56a3.219,3.219,0,0,1-.388.37.446.446,0,0,1-.262.1.728.728,0,0,1-.325-.108q-.2-.108-.388-.226l-.334-.208a4.233,4.233,0,0,0-2.185-.795,1.376,1.376,0,0,0-.912.28.854.854,0,0,0-.334.677.972.972,0,0,0,.325.713,1.634,1.634,0,0,0,.921.406,7.4,7.4,0,0,1,3.855,1.535,3.413,3.413,0,0,1,1.273,2.6,3.673,3.673,0,0,1-.677,2.086A4.974,4.974,0,0,1,85.259-3a5.735,5.735,0,0,1-2.682.623,8.467,8.467,0,0,1-4.857-1.7Q76.926-4.612,76.926-5.1Z" transform="translate(51.943 58.279)" fill="#fff"/></g></svg>