<svg xmlns="http://www.w3.org/2000/svg" width="95.351" height="166.096" viewBox="0 0 95.351 166.096"><path d="M112.163,399.987c21.67-29.8,35.577-54.678,60.921-89.326,2.03,30.517.072,39.972,2.714,69.254,13.225-7.979,19.472-12.6,29-18.711.136,33.382-6.18,89.937-9.944,104.593-3.437-17.237-7.61-26.026-9.181-35.107-1.983-9.5-3.542-19.4-5.111-29.3-8.313,8.172-15.393,16.769-23.7,24.941.2-23.9-1.665-46.584-.756-57.287-7.888,6.941-36.463,23.592-43.941,30.947" transform="translate(-110.95 -306.448)" fill="none" stroke="#fff9f8" stroke-miterlimit="10" stroke-width="3"/></svg>