<svg height="153.891" viewBox="0 0 147.742 153.891" width="147.742" xmlns="http://www.w3.org/2000/svg"><g fill="#d35031" opacity=".374" transform="matrix(-.76604444 .64278761 -.64278761 -.76604444 340.736 270.538)"><path d="m52.4 295.308a4.8 4.8 0 0 0 -1.265-2.877 9.433 9.433 0 0 1 -1.72-3.263 6.733 6.733 0 0 0 -1.239-1.4 2.039 2.039 0 0 1 -.921-1.677 1.973 1.973 0 0 0 -.94-1.661c-.115-.063-.213-.106-.186-.228.361-1.65-1.147-2.7-1.36-4.193-.087-.607-.97-.921-1.2-1.687a16.036 16.036 0 0 0 -2.01-3.748c-.806-1.271-1.474-2.61-2.239-3.9a5.5 5.5 0 0 1 .609-5.151 39.468 39.468 0 0 1 3.444-3.82 16.305 16.305 0 0 1 1.8-1.108c1.421-.845 2.8-1.8 4.243-2.546a18.488 18.488 0 0 1 3.377-1.64 20.384 20.384 0 0 0 4.237-1.5 8.2 8.2 0 0 1 1.941-.362 12.123 12.123 0 0 1 5.174-.6c1.4.276 2.832.489 3.516 2.378.627 1.731 1.874 3.271 2.486 5.076a32.61 32.61 0 0 0 1.748 3.524c.361.754 1.156 1.345 1.526 2.228.654 1.563 1.678 2.938 2.433 4.462a16.52 16.52 0 0 0 2.194 2.879c.99 1.217.94 2.94 1.906 4.264a18.681 18.681 0 0 1 1.862 2.885c.532 1.117 1.578 1.865 1.794 3.292.122.809.3 2.117 1.36 2.7.035.02.1.037.1.055-.01 2.09 2.236 3.166 2.339 5.231.036.716.917.9 1.328 1.454a5.677 5.677 0 0 1 1.111 2.381c.2 1.151 1.16 1.693 1.764 2.484.462.6.561 1.618.935 1.8 1.251.6.577 2.172 1.782 2.9a5.751 5.751 0 0 1 1.542 2.481c.352.928.42 2.3 1.853 2.506.31.044.259.225.232.416a2.478 2.478 0 0 0 .786 2.06c1.212 1.336 1.593 3.178 2.6 4.547 1.164 1.584 1.237 3.816 3.066 4.939.028 1.709 1.4 2.8 2 4.259a9.572 9.572 0 0 0 2.53 4.2c.785.644.811 2.143 1.368 3.153a20.517 20.517 0 0 0 2.348 3.521c.63.733.917 1.689 1.533 2.478 1.245 1.594 1.668 3.641 2.662 5.42.947 1.694 1.924 3.708 1.553 5.895-.111.655.307 1.178.36 1.788.154 1.765.345 3.528.467 5.3a21.961 21.961 0 0 0 .084 2.7c.487 2.534.118 5.119.438 7.669.269 2.135.311 4.305.694 6.415.317 1.745-.286 3.519.343 5.219.587 1.583-.048 3.214.19 4.822.1.7-.6 1.249-.824 1.927-.113.346-.581.133-.737.049-1.328-.711-2.9-1.239-3.845-2.312-.8-.912-1.882-1.3-2.639-2.115-1.176-1.272-2.661-2.162-3.908-3.359-.868-.833-2.086-1.451-2.885-2.356-1.091-1.236-2.7-1.894-3.526-3.39a2.822 2.822 0 0 0 -1.262-.963c-1.064-.531-1.226-2.1-2.622-2.141-.5-1.816-2.578-2.046-3.547-3.528-.471-.721-1.653-1.32-2.321-2.113-1.177-1.394-2.412-2.745-3.483-4.235-.369-.514-.537-1.1-.889-1.619a29.023 29.023 0 0 1 -2.215-3.357 36.8 36.8 0 0 1 -2.078-3.744c-.106-.3-.174-.924-.784-.428-.105.086-.218.052-.211-.113.067-1.633-1.28-2.582-1.946-3.848a10.553 10.553 0 0 0 -1.529-2.875 6.353 6.353 0 0 1 -1.736-3.418.7.7 0 0 0 -.269-.376 6.929 6.929 0 0 1 -2.064-3.509c-.182-.583-.849-1-1.255-1.528a5.607 5.607 0 0 1 -1.519-2.771c-.058-.68-.644-.991-.914-1.262-.64-.642-.12-1.6-.876-2.109-.817-.548-.608-1.7-1.174-2.343-1.268-1.43-1.752-3.272-2.6-4.894a24.137 24.137 0 0 1 -1.95-3.849c-.379-1.2-1.581-2.2-2.129-3.474-1.2.286-.534-1.086-1.275-1.477-.585-.309-1.006-1.461-1.339-2.247a9.811 9.811 0 0 0 -.768-1.9c-1.2-1.7-1.808-3.763-3.059-5.364-.645-.826-.482-1.818-1.077-2.448a13.862 13.862 0 0 1 -1.625-2.66 5.533 5.533 0 0 1 -.992-2.3c-.098-.939-.455.081-.706.029zm47.938 62.339a2.887 2.887 0 0 0 1.662 1.944 12.818 12.818 0 0 0 1.661.4 4.164 4.164 0 0 0 4.466-.7c1.276-1.154 2.093-4.573 1.069-5.937-1.173-1.559-2.014-3.331-3.213-4.847-.422-.533-.154-1.159-.494-1.5a14.828 14.828 0 0 1 -2.546-3.628 36.56 36.56 0 0 0 -1.907-3.188c-1.182-1.781-1.991-3.805-3.069-5.662-1.42-2.447-2.8-4.947-3.99-7.476-1.165-2.468-2.726-4.671-3.942-7.086-1.048-2.081-2.1-4.175-3.222-6.224-.869-1.584-1.786-3.174-2.772-4.648-1.407-2.1-2.5-4.376-3.775-6.535-.639-1.08-1.184-2.357-1.9-3.377a60.471 60.471 0 0 1 -3.451-5.2 59.38 59.38 0 0 1 -3.861-7.518 37.812 37.812 0 0 0 -2.589-5.253c-.26-.451-.236-1.133-.934-1.4-.871-.329-.94.536-1.414.776-.107.054-.215.105-.323.157a40.261 40.261 0 0 1 -6.615 2.8c-.512.142-.918.395-.443.978a25.418 25.418 0 0 1 1.892 3.4c1.394 2.367 2.724 4.8 3.935 7.266 1.407 2.866 3 5.623 4.484 8.439.908 1.719 1.869 3.409 2.8 5.118.955 1.763 2.1 3.419 3.064 5.165.785 1.425 1.725 2.761 2.444 4.244a35.518 35.518 0 0 0 2.452 3.959c1.459 2.206 2.6 4.622 4.024 6.85 2.033 3.172 3.624 6.587 5.572 9.8 1.045 1.724 2.058 3.467 3.062 5.215a44.752 44.752 0 0 0 2.131 4.158c2.229 3.056 3.612 6.596 5.747 9.51zm7.508-8.365a14.669 14.669 0 0 0 3.047 3.887 3.275 3.275 0 0 0 4.792-.067 3.884 3.884 0 0 0 1.046-3.551 9.3 9.3 0 0 0 -.583-3.044 21.074 21.074 0 0 0 -1.278-2.924 61.844 61.844 0 0 1 -3.978-6.192 8.968 8.968 0 0 0 -.821-1.407 48.854 48.854 0 0 1 -4.632-6.589 20 20 0 0 1 -1.857-3.568c-.21-.684-.953-.712-1-1.245-.164-1.762-1.324-3.089-1.936-4.652a15.99 15.99 0 0 0 -1.636-3.33 34.405 34.405 0 0 1 -2.489-3.9 1.625 1.625 0 0 0 -.546-.755c-1.3-.686-1.181-2.43-2.4-3.167.332-1.034-.526-1.645-1.078-2.055a2.555 2.555 0 0 1 -.917-1.4 6.212 6.212 0 0 0 -1.4-2.429 5.273 5.273 0 0 1 -1.529-2.8c-.172-.871-.611-1.985-1.186-2.211-1.435-.566-.9-2.477-2.3-2.882.014-1.939-1.564-3.238-2-5.029-.382-1.568-1.7-2.713-2.338-4.236-.45-1.076-1.37-1.951-1.589-3.2a1.659 1.659 0 0 0 -.645-1.11c-1.11-.543-1.122-1.658-1.539-2.564-.073-.161 0-.383-.271-.464-.843-.256-.719-.438-1.026-1.166s-.313-1.634-.945-2.135c-.284-.225-.593-.2-.317-.644.1-.158.2-.391-.086-.478-.173-.052-.462-.173-.542.033-.5 1.293-1.892 1.688-2.66 2.695a9.223 9.223 0 0 1 -2.325 1.89.793.793 0 0 0 -.385 1.1c.25.66.859.977 1.2 1.568 1.27 2.193 2.165 4.577 3.451 6.744.723 1.217 1.111 2.574 1.882 3.752a29.246 29.246 0 0 1 1.513 2.551c.5.966 1.106 1.9 1.665 2.8 1.089 1.749 2.09 3.535 3.126 5.311 1.3 2.223 2.54 4.481 3.874 6.683.34.561.849 1.025 1.159 1.6.969 1.8 1.847 3.643 2.824 5.435.829 1.52 1.69 3.018 2.631 4.48 1.115 1.732 1.755 3.739 2.843 5.515a34.221 34.221 0 0 1 2.993 5.488c.884 2.308 2.344 4.275 3.367 6.495a29.146 29.146 0 0 0 3.063 4.728c.635.875.891 1.959 1.489 2.764a30.773 30.773 0 0 1 2.274 3.675zm-49.62-63.224c-.407-1.034-.932-1.674-2.225-1.236-.533.181-1.1.386-1.666.522a11.243 11.243 0 0 0 -3.255.982c-.262.156-.739.536-.591.585.911.3.637 1.259 1.125 1.793.779.852 1.874 1.533 1.919 2.891a2.97 2.97 0 0 0 1.03 1.856 10.811 10.811 0 0 1 1.495 2.559 12.3 12.3 0 0 0 1.238 2.148 19.254 19.254 0 0 1 1.51 2.462c.673 1.293.917 2.845 2.093 3.878.341.3.361.859.616 1.183a23.1 23.1 0 0 1 1.3 2.7c.539.892 1.033 1.816 1.584 2.71s.813 2.066 1.68 2.711a4.166 4.166 0 0 1 1.364 2.3c.2.6.57 1.151.7 1.712.305 1.325 1.805 1.739 2.092 3.08a5.053 5.053 0 0 0 .352 1.383c.469.916 1.368 1.533 1.672 2.48a22 22 0 0 0 1.961 3.792c1.1 2 2.5 3.842 3.493 5.93.238.5.3 1.209.656 1.458a2.157 2.157 0 0 1 1.033 1.6c.034.638.6.814.8 1.335a31.333 31.333 0 0 0 3.114 5.889c1.326 1.991 2.386 4.118 3.564 6.183 1.241 2.176 2.414 4.384 3.872 6.436a11.057 11.057 0 0 1 1.8 3.4c.215.811.6.882 1.171 1.112 1.471.6 3.024.329 4.53.445a2.1 2.1 0 0 0 1.923-1.511c.136-.431.547-1.395-.056-1.684-1.067-.51-1.374-1.608-1.792-2.388-1.239-2.307-2.649-4.514-3.88-6.823-.948-1.777-2.042-3.477-3.043-5.226-.577-1.008-1.06-2.071-1.658-3.065a32.193 32.193 0 0 1 -2.035-3.495c-.5-1.116-1.349-2.063-1.927-3.1a53.437 53.437 0 0 0 -3.453-6.128 7.089 7.089 0 0 1 -.92-1.378c-1.019-2.518-2.688-4.665-3.894-7.071-.852-1.7-2.244-3.071-3.006-4.829a8.753 8.753 0 0 0 -1.455-2.679c-.681-.672-.911-1.513-1.484-2.164-.369-.418-.162-1.014-.528-1.395a16.6 16.6 0 0 1 -3.02-4.728c-1.141-2.549-2.613-4.914-3.781-7.442-.938-2.029-2.142-3.964-3.223-5.945a37.734 37.734 0 0 0 -2.79-5.228zm-17.046-16.644c-.125 1.395 1.286 1.9 1.456 3.146.152 1.114 1.684 1.729 1.358 3.131-.012.055.172.139.236.229a10.4 10.4 0 0 1 2.187 4.062c.076.423.424.9.758.059a.485.485 0 0 1 .377-.222c1.369.018 2.6-.625 3.914-.824a26.49 26.49 0 0 0 7.305-2.247 36.408 36.408 0 0 0 7.054-4.15c.865-.682 1.975-1.255 2.967-1.9a6.743 6.743 0 0 0 2.09-1.932c.394-.635.607-1.772-.714-2.1a.767.767 0 0 1 .035-.221c.361-1.06-.26-1.885-.76-2.665-.364-.57-.714-1.137-1.059-1.717-.646-1.089-.744-2.436-1.759-3.376-.361-.334-.508-.287-.5-.007.02.565-.219.512-.644.63a4.625 4.625 0 0 0 -1.609.959c-1.877 1.561-4.213 2.32-6.252 3.614a21.9 21.9 0 0 1 -4.445 1.729c-.753.268-1.263 1.071-2.17.933a2.194 2.194 0 0 0 -1.663.522c-1.243.983-2.864.752-4.227 1.465a15.07 15.07 0 0 1 -3.935.882zm69.52 84.738a8.1 8.1 0 0 1 -.021 3.1 5.077 5.077 0 0 1 -2.559 3.707c-2.071 1.247-3.93.7-5.817-.009-.73-.274-.737-.259-.953.439a3.749 3.749 0 0 1 -4.409 2.271c-.583-.175-.811.259-1.139.417-.431.207.248.368.249.659 0 .9 1.053.436 1.367 1.02.558 1.036 1.726 1.464 2.459 2.32.6.705 1.764.849 2.063 1.632a4.371 4.371 0 0 0 1.5 1.714 60.043 60.043 0 0 0 4.6 3.957c.777.537 1.29 1.493 2.4 1.528.5.016.969-.149 1.485-.131 3.117.106 5.116-1.858 7.03-3.936.2-.222.185-.469-.074-.721a1.222 1.222 0 0 1 -.368-.725c-.117-2.19.205-4.408-.3-6.569a21.187 21.187 0 0 1 -.28-4.7c-.008-1-.2-1.963-.256-2.945-.054-.965.02-1.936 0-2.9 0-.246.078-.606-.309-.689a.543.543 0 0 0 -.689.495c-.1.727-.633.852-1.2 1.077-1.731.686-3.213.229-4.779-1.011zm-36.812-82.122c-.789-.16-1.2-.53-1.31-1.034-.392-1.751-.908-1.634-1.613-.17-.043.088-.2.126-.3.181a18.921 18.921 0 0 0 -2.024 1.5 31.093 31.093 0 0 1 -3.815 2.812c-2.088 1-3.747 2.675-5.965 3.408-1.064.352-2.144.727-3.182 1.134a23.693 23.693 0 0 1 -3.256.56c-1.333.283-2.673.485-4.02.675-.346.049-1.05-.01-.738.66.954 2.047 2.373 3.034 4.548 2.412a87.385 87.385 0 0 0 8.9-3.005 35.247 35.247 0 0 0 8.771-5.221 55.382 55.382 0 0 0 4.004-3.912zm-22.073-7.654c.752-1.02 2.075-.818 2.9-1.465 1.348-1.053 3-1.475 4.491-2.214a23.748 23.748 0 0 0 5.744-3.543c.365-.335.321-.531.291-.957-.045-.634-.493-.441-.741-.5a9.02 9.02 0 0 0 -3.5.045 23.678 23.678 0 0 0 -7.857 2.659 8.775 8.775 0 0 0 -3.559 2.85 18.406 18.406 0 0 1 -2.658 3.36 11.4 11.4 0 0 0 -1.286 1.989c1.492-.387 2.538-1.534 4.028-1.336a.455.455 0 0 0 .455-.227c.885-1.108 1.626-2.322 2.5-3.424a3.473 3.473 0 0 1 1.921-1.593c-.705 1.666-2.096 2.769-2.729 4.356zm-10.505 3.224c1.432-.6 3.512-.078 3.928-2.38.021-.113.271-.168.364-.289.9-1.157 1.786-2.322 2.685-3.5-1.523.061-2.246 1.165-3.074 2-.581.589-1.65.624-1.835 1.538a1.348 1.348 0 0 1 -1.124 1.035 1.176 1.176 0 0 0 -.944 1.596z"/><path d="m95.652 343.011c1.4.033 1.542.973 1.819 1.831.084.258-.09.241-.177.323-.243.229-.446.07-.592-.117a6.079 6.079 0 0 1 -1.05-2.037z"/><path d="m72.682 301.759c-.538.242-.856-.151-1.038-.481a.657.657 0 0 1 .31-.96c.519-.25.776.079.871.453.075.303.428.749-.143.988z"/><path d="m82.17 314.735c-.584-.319-1.643-.018-1.58-1.1.019-.318.43-.374.624-.366.94.04.607.978.956 1.466z"/><path d="m97.314 320.63a47.827 47.827 0 0 1 3.454 5.172c.881 1.495 1.873 2.925 2.772 4.41.1.17.626.295.241.626a1.362 1.362 0 0 1 -.75.315c-.5.031-.194-.367-.261-.583a17.787 17.787 0 0 0 -1.45-2.444c-.328-.666-.916-1.29-1.328-1.965-1.072-1.755-2.088-3.544-3.127-5.319z"/><path d="m108.194 338.8c-.928-.421-1.164-1.42-1.7-2.146-1.042-1.4-1.539-3.162-2.805-4.443-.282-.285-.461-.784-.087-1.028s.839.164.919.49c.272 1.108 1.222 1.78 1.65 2.761.524 1.2 1.406 2.168 2.026 3.3.178.324.673.734-.032 1.063z"/><path d="m108.161 338.8c.2.108.495-.013.628.25.748 1.487 1.923 2.685 2.764 4.105.109.184.565.531.094.787-.255.139-.532-.107-.681-.333-.971-1.465-1.927-2.939-2.882-4.414a.255.255 0 0 1 .11-.392z"/><path d="m97.314 320.63-.449.212c-.784-1.213-1.572-2.424-2.348-3.643-.106-.166-.177-.4.064-.506.1-.044.288.055.417.124a1.759 1.759 0 0 1 .676.932c.408 1.051 1.526 1.687 1.64 2.881z"/><path d="m93.913 316.764c-.254-1.715-1.706-2.689-2.051-4.386 1.423.8 1.441 2.394 2.506 3.241.34.271.008.716-.455 1.145z"/><path d="m85.439 342.807c.582-.461-.5-1.421.614-1.8.463-.155.879-.072.944.272.094.5.284 1.167-.342 1.507-.34.189-.755.469-1.216.021z"/><path d="m44.653 270.144c.964 1.515 1.9 3.017 2.87 4.491.358.542.5 1.19.864 1.7.236.332.254.6.048.78-.343.293-.466-.178-.669-.333-1.262-.964-1.609-2.524-2.425-3.78-.354-.546-.528-1.209-.882-1.756-.277-.432-.248-.716.194-1.102z"/><path d="m56.1 268.822c.981.8-.164 1.115-.535 1.4-.526.4-.666-.4-.831-.649a.893.893 0 0 1 .242-1.38c.463-.221.996-.167 1.124.629z"/><path d="m115.4 361.068c1.057 1.958.978 4.044 1.4 6.012a7.871 7.871 0 0 1 -.157 2.207.326.326 0 0 1 -.375.346c-.275-.007-.251-.166-.293-.382a68.191 68.191 0 0 1 -.892-7.033 1.214 1.214 0 0 1 .317-1.15z"/><path d="m109.122 373.372c-.246-.625.272-1.028.4-1.546 1.014.627 1.014.627-.4 1.546z"/><path d="m108.367 368.2a.5.5 0 0 1 -.279.689c-.392.173-.7-.141-.883-.43-.225-.354.229-.447.39-.6.444-.401.353.569.772.341z"/></g></svg>