<svg height="45.222" viewBox="0 0 86.581 45.222" width="86.581" xmlns="http://www.w3.org/2000/svg"><g fill="#fff" transform="translate(15.049 -379.726)"><path d="m1.214 401.741c-2.563.793-4.968 1.594-7.408 2.261-.975.267-1.9.677-2.881.927a2.141 2.141 0 0 0 -1.236 1.622 31.316 31.316 0 0 1 -1.806 4.362c-.15.342 0 .656-.163.895-.793 1.144-.667 2.539-1.074 3.789a27.87 27.87 0 0 0 -1.04 3.933c-.169.995-.518 1.942-.637 2.945-.1.794.167 1.065.92.849a16.76 16.76 0 0 0 3.489-1.068 18 18 0 0 1 2.444-1.168c1.156-.427 2.292-.915 3.42-1.39 1.251-.526 2.53-1.013 3.767-1.594a16.2 16.2 0 0 1 2.7-1.026c.611-.162 1.074-.588 1.695-.758a1.8 1.8 0 0 1 1.7.575c.179.138.4.4.57.443a6.615 6.615 0 0 1 2.1 1.365c.482.339.991.617 1.485.927 1.042.656 2.06 1.376 3.093 2.008a11.69 11.69 0 0 0 2.155 1.335 6.525 6.525 0 0 1 2.048 1.387 1.71 1.71 0 0 0 2.507.074 23.814 23.814 0 0 1 1.785-1.594c.829-.617 1.642-1.263 2.462-1.892.805-.617 1.524-1.37 2.325-1.969.761-.569 1.438-1.225 2.189-1.8a13.608 13.608 0 0 1 1.774-1.413c1.055-.547 1.687-1.561 2.656-2.178a12.789 12.789 0 0 0 1.8-1.637 20.086 20.086 0 0 1 2.037-1.745c.647-.464 1.114-1.1 1.739-1.583a25.937 25.937 0 0 0 2.487-2.088c.975-.968 2.159-1.685 3.072-2.731.617-.708 1.537-1.088 2.181-1.8.876-.975 1.972-1.715 2.875-2.675 1.072-1.139 2.247-2.183 3.407-3.236.253-.231.372-.534.638-.769a22.225 22.225 0 0 1 3.974-2.473c1.778-1.006 3.54-2.047 5.358-2.974.872-.445 1.746-.913 2.637-1.327.612-.283 1.3-.807 1.9-1.074 1.177-.523 2.113-1.373 3.234-1.945a6.2 6.2 0 0 0 1.547-1.267c.67-.694.488-1.324-.426-1.768a7.649 7.649 0 0 0 -2.183-.443c-1.219-.2-2.492-.171-3.666-.441a12.978 12.978 0 0 1 -2.878-.464 12.274 12.274 0 0 0 -2.593-.28c-1.14-.2-2.3-.154-3.443-.3-2.34-.3-4.715-.039-7.046-.471a8.813 8.813 0 0 0 -.964.035c-1.376-.094-2.749-.276-4.125-.3-1.852-.03-3.712.146-5.557.036-.5-.029-.883.334-1.424.121a4.337 4.337 0 0 0 -1.582 0c-1.6.043-3.21-.039-4.815-.012a8.722 8.722 0 0 1 -2.723-.142 2.5 2.5 0 0 0 -1.745.113c-.29.159-.577-.139-.893-.132a19.12 19.12 0 0 1 -3.123 0c-1.588-.226-3.121.232-4.676.17-.495-.019-.958.116-1.434.078-2.048-.166-4.086.119-6.13.135-.961.008-1.93.1-2.9.092-.229 0-.512.086-.678-.016-.776-.479-1.193.074-1.572.55a40.43 40.43 0 0 1 -2.945 3.549c-.974.972-1.846 2.048-2.743 3.095-.5.588-1.3.88-1.645 1.615s-1.138.951-1.62 1.521a6.768 6.768 0 0 0 -1.154 1.469c-.2.451-.7.45-1.013.8-.324.368-.544.783-.826 1.163a18.065 18.065 0 0 0 -1.624 1.963c-.337.614-.292.877.331 1.258 1.156.708 2.469 1.047 3.672 1.637 1.592.78 3.326 1.232 4.867 2.142a9.627 9.627 0 0 1 1.351.704zm68.534-17.757c-1.791 1.038-3.477 1.978-5.124 2.98-1.182.719-2.585 1.04-3.622 2.019-.078.074-.247.043-.355.1-.929.457-1.876.883-2.767 1.405a10.927 10.927 0 0 0 -1.131.755c-.568.437-1.314.321-1.882.728a19.838 19.838 0 0 1 -2.233 1.487c-2.745 1.452-5.516 2.857-8.284 4.265a10.2 10.2 0 0 0 -1.405.537 19.111 19.111 0 0 1 -2.745 1.371c-1.51.871-3.234 1.263-4.721 2.177a1.426 1.426 0 0 1 -.684.3 3 3 0 0 0 -1.645.623c-1.133.68-2.481.8-3.58 1.548-.918.629-2.121.564-3.1 1.12-.9.514-1.95.671-2.883 1.138-.768.384-1.655.581-2.408.933-1.229.575-2.481 1.072-3.737 1.57a8.514 8.514 0 0 0 -1.194.4c-1.541.9-3.264 1.4-4.873 2.153-1.4.653-2.894 1.153-4.343 1.733-1.016.406-2 .874-3.023 1.277-1.495.591-2.913 1.373-4.406 2-1.333.556-2.658 1.158-3.96 1.78-1.342.642-2.764 1.029-4.118 1.618-1.469.641-2.981 1.184-4.479 1.759-.175.067-.369.261-.563.076s-.1-.4-.035-.632a7.631 7.631 0 0 0 .529-1.771 13.641 13.641 0 0 1 .441-2.165 11.912 11.912 0 0 1 .636-2.03c.2-.685.526-1.35.671-2.072.193-.954.726-1.842.907-2.8.218-1.146.763-2.16 1.073-3.262a1.64 1.64 0 0 1 1.036-1.104 11.811 11.811 0 0 0 2.356-.9c.374-.244.976-.126 1.366-.358a19.929 19.929 0 0 1 3.61-1.324c1.124-.4 2.318-.621 3.474-.925 1.181-.311 2.3-.832 3.537-1.042 1.218-.207 2.333-.833 3.559-1.145 1.854-.471 3.615-1.3 5.434-1.931a30.122 30.122 0 0 1 3.645-1.065c.473-.1.68-.543 1.182-.558 1-.03 1.887-.612 2.93-.657a9.3 9.3 0 0 0 1.722-.6c.78-.218 1.563-.422 2.343-.639 1.471-.408 2.939-.825 4.41-1.23a30.243 30.243 0 0 1 3.055-.907 20.58 20.58 0 0 0 2.212-.6c.773-.217 1.578-.595 2.367-.828 1.207-.357 2.426-.691 3.645-1.02 1.02-.276 2.056-.515 3.049-.872a16.058 16.058 0 0 0 2.822-.8 9.127 9.127 0 0 1 2.3-.618 12.772 12.772 0 0 1 2.076-.533 15.864 15.864 0 0 0 2.571-.689c1.572-.432 3.167-.78 4.746-1.17 1.736-.43 3.542-.568 5.3-.91 1.387-.27 2.773-.49 4.296-.695zm-77.2 12.187a18.017 18.017 0 0 1 1.236-1.454c1.154-1.1 2.191-2.309 3.247-3.484.776-.865 1.589-1.7 2.37-2.558.668-.735 1.2-1.6 1.871-2.329 1.249-1.367 2.4-2.817 3.611-4.217a2.465 2.465 0 0 1 2.154-.813c.851-.02 1.7-.047 2.552-.025.921.025 1.867-.1 2.8-.139.84-.039 1.674.061 2.523-.026.883-.091 1.791-.136 2.669-.141 2.619-.015 5.241-.1 7.862.03 1.411.069 2.828.011 4.242.022q1.931.015 3.862-.021c1.828-.033 3.653.279 5.491.1.706-.07 1.4.227 2.13.112a5.876 5.876 0 0 1 1.41.081c.767.07 1.517-.058 2.273-.05 1 .011 1.979.152 2.971.176 1.458.035 2.915.166 4.373.214.891.029 1.77.183 2.652.224a14.923 14.923 0 0 1 2.074.149c.9.169 1.836.194 2.749.292.783.083 1.6.161 2.4.187 1.376.043 2.737.328 4.121.348.595.009 1.188.111 1.782.17a29.358 29.358 0 0 1 -4.184 1.082c-1.395.252-2.812.376-4.214.6-.544.087-1.1.166-1.627.277-1.8.382-3.585.821-5.407 1.033-2.48.29-4.927.776-7.393 1.145-1.834.273-3.688.486-5.506.922-1.358.325-2.762.45-4.137.742-2.227.475-4.492.759-6.731 1.2-2.206.432-4.439.738-6.647 1.175-1.478.293-2.967.524-4.448.8a18.843 18.843 0 0 1 -2.9.572 24.785 24.785 0 0 0 -4.138.728c-2 .393-4.015.785-6 1.263-2.515.6-5.13.78-7.689 1.22a15.525 15.525 0 0 0 -2.418.212 4.388 4.388 0 0 1 -1.987.182zm57.274.087a14.118 14.118 0 0 1 -2.568 2.788c-.952.958-2.015 1.834-3.055 2.707-1.061.891-2.012 1.907-3.164 2.706a19.018 19.018 0 0 0 -2.606 2.261c-.859.865-1.931 1.459-2.77 2.346a12.061 12.061 0 0 1 -1.582 1.292 13.9 13.9 0 0 0 -2.547 2.165 8.477 8.477 0 0 1 -1.636 1.343c-1.014.74-1.736 1.846-2.922 2.353-.033.014-.031.094-.063.126-.7.708-1.517 1.282-2.255 1.941a21.275 21.275 0 0 0 -2.167 1.8c-.719.845-1.72 1.323-2.451 2.142-.492.553-1.3.834-1.745 1.376s-.693.238-.977.033c-.952-.691-1.822-1.529-2.794-2.147a30.215 30.215 0 0 0 -3.294-2.284c-1.662-.773-2.972-2.109-4.567-3.01a1.683 1.683 0 0 1 -.93-.841 2.617 2.617 0 0 0 1.191-.193 20.633 20.633 0 0 1 2.156-.81 6.274 6.274 0 0 0 2.133-.723c.808-.508 1.691-.865 2.52-1.318.691-.378 1.54-.512 2.3-.83.4-.166.665-.509 1.106-.621a27.936 27.936 0 0 0 4.163-1.521c1.243-.536 2.456-1.146 3.71-1.65 1.034-.415 2.01-.948 3.034-1.377 1.227-.515 2.391-1.167 3.611-1.683 1.238-.523 2.545-.88 3.768-1.461 1.013-.481 2.088-.84 3.076-1.365.584-.31 1.212-.519 1.8-.814.4-.2.724-.5 1.13-.68.705-.3 1.392-.653 2.106-.934.564-.222 1.076-.545 1.613-.793.752-.347 1.472-.759 2.231-1.092.832-.368 1.63-.818 2.443-1.231zm-55.391.782.024-.228a22.617 22.617 0 0 1 2.445-.386 12.415 12.415 0 0 0 2.2-.272c1.285-.135 2.589-.478 3.881-.734 1.345-.268 2.758-.213 4.094-.513 1.188-.267 2.378-.556 3.575-.764 1.643-.286 3.3-.545 4.929-.852 1.066-.2 2.17-.437 3.244-.63 1.5-.271 3.009-.579 4.526-.8 1.581-.23 3.175-.576 4.75-.922 1.368-.3 2.753-.512 4.125-.745.538-.091.959-.4 1.473-.447a20.5 20.5 0 0 0 3.767-.547c1.4-.386 2.9-.384 4.337-.632a9.664 9.664 0 0 0 2.286-.443c.216-.094.529-.12.592.142.081.335-.287.276-.478.341-.929.32-1.894.527-2.836.793q-2.147.606-4.289 1.234a34.712 34.712 0 0 1 -4.034 1.057c-.473.078-.871.582-1.42.243a5.665 5.665 0 0 1 -2.821 1.048c-1.043.235-2.01.693-3.082.889-1.366.252-2.68.783-4.023 1.17-1.544.444-3.1.9-4.625 1.479-1.078.413-2.216.781-3.349 1.1-.333.094-.751-.009-1.031.15a14.076 14.076 0 0 1 -3.091 1.109c-1.489.437-2.963.9-4.414 1.448a8.1 8.1 0 0 1 -2.261.691c-1.346.08-2.37-.9-3.5-1.45-.965-.47-1.839-1.15-2.833-1.6-.718-.317-1.443-.618-2.163-.928z"/><path d="m-1.113 417.609a9.871 9.871 0 0 1 2.137-1.077c1.016-.512 2.087-.975 3.151-1.417.995-.414 1.9-1.033 2.93-1.376 1.008-.337 1.905-.922 2.953-1.191a16.844 16.844 0 0 0 1.813-.867c1.242-.492 2.452-1.062 3.669-1.615 1.175-.533 2.31-1.176 3.524-1.589.629-.213 1.131-.8 1.91-.666.19.032.43-.379.68-.532a6.46 6.46 0 0 1 1.72-.66c.8-.21 1.326-.85 2.151-1a6.9 6.9 0 0 0 2.4-.879c1.044-.649 2.331-.729 3.285-1.5a4.126 4.126 0 0 1 1.167-.48c.844-.355 1.735-.567 2.588-.941.772-.34 1.565-.7 2.384-.975 1.224-.409 2.42-.946 3.638-1.341.99-.32 1.98-.67 2.972-.995 2.179-.714 4.364-1.412 6.522-2.192 1.2-.433 2.447-.733 3.633-1.215q1.373-.557 2.74-1.13c.139-.058.286-.162.191-.352-.085-.17-.216-.081-.324-.017a9.1 9.1 0 0 1 -1.944.708 32.681 32.681 0 0 1 -4.7 1.411 14.269 14.269 0 0 0 -2.7.948c-.868.335-1.785.476-2.641.83-1.1.455-2.26.759-3.385 1.152a33.284 33.284 0 0 1 -3.811 1.39 15.583 15.583 0 0 0 -1.9.686 13.487 13.487 0 0 0 -2.048.754 17.22 17.22 0 0 1 -2.648 1.085c-1.342.483-2.622 1.1-3.939 1.64-1.466.6-2.881 1.338-4.374 1.852a31.236 31.236 0 0 0 -3 1.357 14.313 14.313 0 0 0 -3.416 1.619 4.716 4.716 0 0 1 -1.513.539c-1.043.379-2.022.895-3.033 1.324-1.813.769-3.627 1.545-5.383 2.451-1 .515-2.182.694-3.123 1.281-1.366.852-2.927 1.2-4.311 1.944-.666.359-1.393.57-2.041.966-.225.138-.218.217-.157.4.046.137.132.241.281.186a7.464 7.464 0 0 1 1.952-.516z" transform="translate(-2.635 -3.116)"/><path d="m3.377 414.121c-.392.048-.345.221-.234.478.161.371.374.508.763.331.258-.116.488-.253.272-.55-.197-.272-.427-.622-.801-.259z" transform="translate(-4.091 -7.734)"/><path d="m42.75 402.753c0-.3.322-.626-.1-.8-.183-.075-.515.013-.522.156-.019.391.441.377.622.644z" transform="translate(-12.915 -5.015)"/><path d="m60.783 384.753c-.18-.45-.625-.378-.86-.377-2.054.005-4.074-.4-6.139-.375-1.384.017-2.788-.108-4.186-.147-1.244-.034-2.483-.063-3.729-.07a11.064 11.064 0 0 1 -2.147.056 21.74 21.74 0 0 0 -3.738-.149c-1.318-.077-2.682-.029-4.022-.029a14.656 14.656 0 0 1 -3.1-.037 2.247 2.247 0 0 0 -1.307.088 3.164 3.164 0 0 1 -1.493.026c-1.167-.11-2.312.18-3.471.05a39.554 39.554 0 0 0 -3.991.12c-1.349-.014-2.723.145-4.084.12a11.38 11.38 0 0 1 -2.616-.029.5.5 0 0 0 -.56.149c-.148.222-.279.4.152.482a9.939 9.939 0 0 0 3.446.215 6.232 6.232 0 0 1 1.568-.056 31.433 31.433 0 0 0 4.742-.176c1.107-.074 2.2.1 3.3-.019 1.146-.128 2.319.049 3.463.024s2.3-.019 3.452-.1c1.02-.075 2.049.02 3.078-.031 1.116-.056 2.239 0 3.357.034 1.234.037 2.478.083 3.7.078a34.844 34.844 0 0 0 4.2-.081 19.012 19.012 0 0 1 2.227.041c1.486 0 2.97.155 4.458.21a27.769 27.769 0 0 1 3.543.1 2.543 2.543 0 0 0 .757-.117z" transform="translate(-6.832 -.868)"/><path d="m12.84 384.9c.077-.146.393-.166.183-.349-.191-.167-.268-.6-.678-.386-.17.089-.44.177-.267.43a.853.853 0 0 0 .762.305z" transform="translate(-6.115 -.989)"/><path d="m24.212 429.874c-.111-.1.071-.219-.18-.35-1.47-.772-2.969-1.489-4.385-2.37a13.15 13.15 0 0 0 -1.276-.686c-.215-.1-.484-.1-.566.036-.118.19.094.336.275.459a11.489 11.489 0 0 0 2.514 1.344c1.034.379 1.79 1.251 2.894 1.491a2.965 2.965 0 0 0 .724.076z" transform="translate(-7.413 -10.542)"/><path d="m35.869 421.44a1.715 1.715 0 0 0 -.583-1.6.642.642 0 0 0 -.737-.254 1.7 1.7 0 0 0 -.437.342 3.063 3.063 0 0 0 .535.612 3.942 3.942 0 0 1 1.222.9z" transform="translate(-11.104 -8.996)"/><path d="m28.818 425.974c.1.652.662.53.949.462.386-.091 0-.58.176-.854-.359-.17-.6-.723-1.037-.543-.486.197-.367.617-.088.935z" transform="translate(-9.854 -10.227)"/></g></svg>